<svg height='300px' width='300px'  fill="#000000" xmlns="http://www.w3.org/2000/svg" xmlns:xlink="http://www.w3.org/1999/xlink" version="1.1" x="0px" y="0px" viewBox="-10 15 120 120" style="enable-background:new 0 0 100 100;" xml:space="preserve"><style type="text/css">
	.st0{fill-rule:evenodd;clip-rule:evenodd;}
</style><path class="st0" d="M90.4,54.9v17.7c0,4.9-4,8.9-8.9,8.9H63.8c-4.9,0-8.9-4-8.9-8.9V54.9c0-19.6,15.9-35.4,35.4-35.4V32  c-9.1,0.6-16.9,6.2-20.6,14.1h11.8C86.4,46.1,90.4,50,90.4,54.9z M37.2,81.5H19.5c-4.9,0-8.9-4-8.9-8.9V54.9  c0-19.6,15.9-35.4,35.4-35.4V32c-9.1,0.6-16.9,6.2-20.6,14.1h11.8c4.9,0,8.9,4,8.9,8.9v17.7C46.1,77.5,42.1,81.5,37.2,81.5z"></path></svg>
